Trial48_full_EMG.mot
version=1
nRows=13
nColumns=29
inDegrees=no
endheader
time	AddMag	AddLong	GlutMaxMed	GlutMed	Iliopsoas	Sartorius	SemiMemb	SemiTend	BicFemLong	RecFem	TenFascLat	Gracilis	BicFemShort	VastMed	VastLat	VastInt	GasMed	GasLat	TibAnt	TibPost	ExtHalLong	FlexHalLong	PeroneusLong	Sol	ExtDigLong	GlutMaxLat	FlexDigLong	RecFem2
15	-0.000305176	0.00595093	-0.181274	0.00396729	0.00900269	0.00869751	-0.0120544	-0.00411987	0.00701904	-0.0112915	0.022583	0.0125122	0.0105286	-0.00152588	-0.00350952	0.00671387	0.311127	-0.138245	-0.0392151	0.0584412	-0.0296021	0.00274658	-0.0634766	-0.277557	-0.00656128	0.0569153	-0.00640869	0.00747681
15.001	-0.0178528	0.00473022	-0.187683	0.00427246	0.00900269	0.00152588	-0.0111389	0.00686646	0.00793457	-0.0192261	0.00808716	0.0268555	-0.00915527	0.000152588	-0.00518799	0.0193787	-0.13443	-0.131836	-0.0361633	-0.0285339	-0.0265503	0.010376	-0.0205994	-0.804443	-0.00244141	0.0737	-0.0138855	-0.000305176
15.002	-0.0112915	0.00549316	-0.179596	0.00396729	-0.000915527	0.00595093	-0.00274658	0.00686646	0.00549316	-0.0196838	-0.0299072	0.0268555	-0.00411987	-0.00183105	-0.000762939	0.00762939	-1.03027	-0.144501	0.0178528	-0.0114441	-0.0138855	-0.0283813	0.0378418	-1.23337	-0.00747681	0.0592041	-0.0134277	-0.012207
15.003	-0.00640869	0.00183105	-0.180054	0.00610352	0.00656128	0.00610352	0.00839233	0.00747681	0.00686646	-0.017395	-0.000762939	0.0259399	0.00274658	-0.00411987	-0.00244141	0.00656128	-1.03928	-0.190125	0.0154114	0.13031	-0.0152588	0.00762939	-0.000915527	0.0593567	-0.000457764	0.0657654	-0.0160217	-0.0135803
15.004	-0.00610352	-0.0012207	-0.161896	0.00183105	0.0111389	0.00106812	0.000305176	0.00152588	0.00335693	-0.0135803	0.0593567	0.0332642	-0.0283813	0.00564575	-0.00366211	0.0108337	-0.558777	-0.131531	0.00762939	-0.0872803	-0.0161743	0.0906372	0.00686646	0.708771	-0.00305176	0.0630188	-0.0222778	-0.00839233
15.005	-0.00656128	0.00579834	-0.169373	0.00350952	0.00991821	-0.0289917	-0.0119019	0.000915527	0.010376	-0.0183105	0.0762939	0.019989	0.0282288	-0.000915527	-0.00335693	0.00701904	0.206299	0.00228882	-0.00442505	-0.110321	-0.01297	0.0170898	0.00289917	0.712585	-0.00427246	0.067749	-0.0187683	-0.00762939
15.006	0.00732422	0.0140381	-0.16922	0.0131226	0.00640869	-0.0131226	-0.00717163	0.00259399	0.00732422	-0.015564	0.0550842	0.0201416	0.00579834	0.00213623	-0.00259399	0.00900269	0.924835	0.101776	0.00320435	0.154114	-0.0209045	-0.0408936	0.00305176	0.839233	-0.00442505	0.0692749	-0.0187683	-0.0248718
15.007	0.00350952	0.00366211	-0.158234	0.00274658	0.0119019	0.00534058	-0.00854492	0.00656128	0.00396729	-0.00427246	0.0196838	0.00564575	-0.00930786	0.00610352	-0.00274658	0.00610352	0.419922	0.201111	0.00473022	0.137177	-0.022583	-0.0614929	0.0178528	0.720367	0.000305176	0.0724792	-0.017395	-0.0238037
15.008	0.00640869	0.00518799	-0.131073	0.00595093	0.0141907	0.000915527	-0.00595093	0.00457764	0.000152588	-0.00442505	0.0376892	0.00534058	-0.0102234	0.00656128	0.000305176	0.00137329	-0.146027	0.306854	-0.01297	-0.0691223	-0.0140381	-0.0495911	-0.0126648	0.599365	0.00823975	0.0610352	-0.0146484	-0.0254822
15.009	0.00961304	0.00320435	-0.118103	0.0062561	0.01297	-0.000457764	-0.0119019	0.000762939	0.00305176	-0.000610352	0.039978	0.000152588	-0.00701904	-0.00640869	-0.00640869	0.00228882	-0.475159	0.386658	-0.0492859	-0.0669861	-0.0247192	-0.0248718	-0.0686646	0.280457	-0.00396729	0.0752258	-0.0215149	-0.0163269
15.01	0.017395	0.0038147	-0.10788	0.00564575	0.0109863	-0.000152588	-0.00473022	0.00259399	0.00457764	-0.00427246	0.0593567	0.00534058	0.0250244	0.00457764	0	0.00808716	-0.627899	0.278168	-0.00671387	-0.0584412	-0.0175476	-0.0213623	-0.171356	0.184174	-0.00595093	0.0572205	-0.0219727	-0.0146484
15.011	0.0228882	0.00488281	-0.0904846	0.00396729	0.00549316	-0.00442505	-0.00656128	0.010376	0.000305176	-0.00457764	0.0231934	0.00335693	-0.00335693	0.00335693	-0.00366211	0.000457764	0.0302124	0.0486755	0.0166321	-0.0546265	-0.00976563	-0.071106	-0.206757	-0.49942	-0.00534058	0.0569153	-0.0166321	-0.012207
15.012	0.0309753	0.00259399	-0.088501	0.00335693	0	0.00961304	-0.00900269	0.00778198	0.00167847	0.00640869	0.0384521	0.000915527	-0.00839233	0.00152588	0.00183105	0.00534058	0.783081	-0.130463	-0.0088501	-0.0437927	-0.0378418	0.111389	-0.132141	-1.63132	0.000610352	0.0498962	-0.0175476	-0.00869751
